<svg xmlns="http://www.w3.org/2000/svg" width="18" height="20" version="1.0"><path d="M248.26 536.802c.008.37-.15.739-.431.98-.36.329-.91.396-1.359.229a1.27 1.27 0 0 1-.799-1.09c-.033-.374.086-.766.356-1.032a1.278 1.278 0 0 1 1.004-.383 1.264 1.264 0 0 1 1.229 1.296zM248.26 542.645c.008.37-.15.74-.431.98-.36.33-.91.397-1.359.23a1.27 1.27 0 0 1-.799-1.091c-.034-.374.093-.76.356-1.031.25-.278.634-.405 1.001-.383.484.013.924.343 1.124.775.074.162.108.342.108.52zM243.979 540.868c.045 2.825-1.215 5.57-3.214 7.536-2.49 2.489-5.747 4.071-9.067 5.129-.442.239-1.108-.077-.412-.402 1.337-.608 2.727-1.13 3.96-1.95 2.722-1.684 5.02-4.334 5.577-7.562.325-1.965.234-4.011-.258-5.94-.361-1.42-1.345-2.884-2.901-3.093a4.612 4.612 0 0 0-3.923 1.295c-.266.269-.782 1.013-.697 1.866.602-.472.561-.42 1.055-.64 1.137-.507 2.644.214 2.928 1.466.302 1.15.069 2.613-1.067 3.227-1.185.644-2.934.377-3.596-.891-1.095-1.955-.493-4.627 1.278-5.983 1.803-1.497 4.434-1.555 6.558-.787 2.184.812 3.486 3.076 3.697 5.318.057.468.082.94.082 1.411z" style="fill:#000;fill-opacity:1" transform="translate(-230.948 -533.657)"/></svg>