<svg xmlns="http://www.w3.org/2000/svg" width="18" height="25" version="1.0"><path d="M325.903 546.764c-.127 1.972-1.23 3.984-3.14 4.719-1.637.606-3.701.697-5.125-.455-1.065-.788-1.472-2.582-.358-3.508 1.064-1.008 3.111-.099 2.989 1.384.417 1.018-1.746 1.643-.609 2.357 1.309.34 2.643-.728 2.978-1.97.489-1.782.463-3.706.035-5.498-.23-.884-.776-2.257-1.943-1.899-1.527.355-2.384 1.864-2.865 3.236-.278-1.945-1.501-3.626-2.907-4.938v11.719l-.875.005v-24.247l.875-.001v11.712c1.394-1.292 2.622-2.946 2.886-4.875.504 1.439 1.478 3.027 3.126 3.25 1.21.067 1.557-1.41 1.798-2.33.318-1.738.353-3.586-.198-5.28-.394-1.192-1.69-2.167-2.966-1.847-1.031.751 1.003 1.295.66 2.263.219 1.391-1.503 2.479-2.69 1.758-1.285-.704-1.191-2.598-.2-3.514.674-.696 1.957-1.146 2.897-1.138.958.007 1.518.078 2.376.377 1.921.685 3.082 2.66 3.24 4.628.29 2.231-.958 4.666-3.061 5.547-1.368.53-2.95.072-3.999-.902-.171.977-.607 1.91-1.146 2.584.435.71.906 1.852 1.147 2.243 1.313-1.196 3.633-1.34 5-.154 1.392 1.142 2.26 2.96 2.075 4.774z" style="fill:#000;fill-opacity:1" transform="matrix(1 0 0 1.0307 -309.364 -543.865)"/><path d="M312.208 551.911h-2.844v-24.25h2.844v24.25z" style="fill:#000;fill-opacity:1" transform="matrix(1 0 0 1.03093 -309.364 -543.98)"/></svg>