<svg xmlns="http://www.w3.org/2000/svg" width="15.186" height="40.768"><path d="M12.049 3.53c.305 3.126-2.019 5.656-4.077 7.701-.935.897-.155.148-.644.594-.102-.479-.299-1.731-.28-2.11.13-2.694 2.32-6.588 4.238-8.024.309.577.563.623.763 1.839zm.651 16.142c-1.232-.906-2.85-1.144-4.334-.885-.19-1.255-.382-2.51-.574-3.764 2.351-2.33 4.907-5.033 5.041-8.54.059-2.232-.276-4.671-1.678-6.483-1.7.128-2.9 2.156-3.802 3.416-1.489 2.67-1.141 5.917-.57 8.797-.81.952-1.93 1.743-2.727 2.734C1.7 17.255-.353 20.377.05 23.825c.183 3.334 2.59 6.434 5.87 7.227a8.782 8.782 0 0 0 3.824.099c.22 2.25 1.027 4.629.093 6.813-.7 1.598-2.788 3.004-4.333 2.192-.599-.316-.113-.051-.478-.252 1.07-.257 2-1.036 2.26-1.565.838-1.464-.4-3.64-2.155-3.358-2.262.046-3.19 3.14-1.736 4.685 1.347 1.52 3.833 1.312 5.43.318 1.813-1.18 2.04-3.544 1.833-5.562-.07-.678-.403-2.67-.444-3.387.697-.25.209-.06 1.193-.45 2.66-1.052 4.357-4.258 3.594-7.121-.318-1.47-1.044-2.914-2.302-3.792zm.561 5.757c.214 1.99-1.053 4.32-3.079 4.96-.136-.795-.172-1.011-.263-1.475-.482-2.46-.744-4.987-1.116-7.481 1.625-.168 3.458.543 4.023 2.184.244.577.343 1.197.435 1.812zm-5.149 5.196c-2.544.14-5-1.595-5.634-4.081-.749-2.153-.528-4.63.82-6.504 1.116-1.702 2.607-3.105 4.03-4.543l.548 3.382c-2.99.782-5.004 4.725-3.215 7.45.533.765 1.977 2.224 2.766 1.635-1.102-.683-2.003-1.86-1.81-3.227-.082-1.282 1.37-2.911 2.652-3.198.438 2.869.941 6.073 1.38 8.943-.506.1-1.022.143-1.537.143z"/></svg>