<svg xmlns="http://www.w3.org/2000/svg" width="200" height="200"><path d="M105.729 30.995c7.025.036 6.66 6.658 5.9 10.396 1.896.194 8.72-4.025 10.126-6.749 1.752-2.494 2.45-10.456 3.02-13.496-1.993 1.114-5.55 2.834-9.956 2.733-4.107.096-8.287-3.08-8.23-7.353.005-3.905 2.43-6.581 6.033-6.503 3.348-.072 6.421 3.771 6.411 6.35.034 1.784.056 2.325-.291 3.892 4.515-.675 9.59-5.348 11.09-7.8l1.948-.012-26.106 89.17-18.678 68.415-1.78.005-1.78.005 9.147-31.77s-7 2.723-11.086 2.725c-4.497.002-8.275-2.201-8.477-7.218.079-3.159 1.575-6.774 6.962-6.787 4.552.003 6.372 2.801 6.344 5.79.025 1.68-.188 3.227-.6 4.364 4.481.323 7.501-2.767 7.984-4.372l5.015-18.776c-2.157 1.235-5.731 2.993-9.887 2.996-4.227-.003-8.836-2.522-8.846-7.221.02-3.78 2.737-6.768 6.652-6.772 4.138.006 6.376 3.363 6.439 6.337.026 2.01-.545 2.871-.958 3.555 5.104.106 7.783-3.16 8.01-3.983l5.332-19.625c-3.668 1.77-7.267 2.698-10.794 2.704-5.374.012-8.027-2.906-8.232-7.199.07-3.295 1.915-6.785 6.591-6.8 4.968-.001 6.434 3.574 6.442 6.051-.022 1.379-.176 2.692-.599 3.895 3.472.73 7.245-3.009 7.64-4.194l5.244-18.427c-3.335 1.387-6.703 2.681-10.178 2.678-5.106-.038-8.572-3.377-8.582-7.465.013-3.537 2.64-6.533 6.307-6.533 5.265-.003 6.712 3.495 6.694 5.971-.008 1.95-.411 3.11-.833 3.957 3.436.508 7.656-2.826 7.98-3.873l4.604-17.806c-2.82 1.119-5.7 2.766-9.588 2.75-2.776-.009-8.208-.746-8.689-7.244-.085-3.868 3.108-6.746 6.255-6.761z" style="fill:#000;fill-opacity:1;stroke:none"/></svg>