<svg xmlns="http://www.w3.org/2000/svg" width="15.58" height="36.6" version="1.0"><g style="fill:#000;fill-rule:evenodd;stroke:#000;stroke-width:0;stroke-linecap:butt;stroke-linejoin:round;stroke-miterlimit:10"><path stroke="none" d="M553.789 69.863a1.449 1.449 0 0 0-1.094.957c-.043.16-.043.199-.043.418 0 .218 0 .3.043.418.137.441.418.777.856.976.297.16.437.18.855.18.52 0 .957-.078 1.657-.297a6.04 6.04 0 0 1 .316-.102c.019 0-.16.7-.399 1.536-.296 1.175-.417 1.554-.457 1.671-.16.301-.5.758-.718.957-.2.18-.317.219-.516.141-.18-.098-.242-.199-.359-.738-.102-.399-.18-.617-.34-.778-.418-.457-1.137-.515-1.692-.156-.261.176-.46.457-.578.754-.043.16-.043.199-.043.418 0 .301.024.461.161.699.199.399.617.719 1.097.836.219.063.778.063 1.156 0 .317-.058.696-.16 1.075-.277.179-.059.32-.102.32-.102 0 .02-.797 3.051-.84 3.11-.156.34-.476.758-.715.996-.258.258-.398.301-.617.219-.18-.098-.242-.2-.359-.739-.102-.398-.18-.617-.34-.773-.418-.461-1.137-.52-1.692-.16-.261.179-.46.457-.578.758-.043.156-.043.199-.043.417 0 .219 0 .297.043.418.137.438.418.778.856.977.32.16.437.18.875.18.32 0 .422 0 .679-.043.36-.059.739-.176 1.157-.297l.258-.102v.063c-.02.078-1.696 6.375-1.715 6.414-.02.082.34.238.558.238.219 0 .539-.137.559-.238.019-.02.976-4.145 2.172-9.164 2.133-9.086 2.133-9.106 2.094-9.168-.063-.078-.161-.117-.282-.117-.14.019-.199.078-.34.316-.277.481-.597.898-.773 1.039-.121.078-.223.078-.379.02-.18-.102-.242-.2-.359-.739-.121-.539-.262-.777-.559-.976a1.249 1.249 0 0 0-.957-.16z" style="fill:#000;stroke:#000" transform="matrix(1.8 0 0 1.8 -988.824 -124.69)"/></g></svg>