<svg xmlns="http://www.w3.org/2000/svg" width="200" height="200"><path d="m112 147.538.002-141.057 2 .038c.925 3.388 1.551 6.963 3.53 9.963 1.99 3.498 12.096 12.618 15.725 18.052 1.809 2.645 2.532 4.862 3.146 6.816.638 2.287.697 4.965.633 7.432-.046 2.904-.87 6.31-1.449 8.73l-.62-1.9c-.035-3.19.315-6.49-.512-9.617-.656-2.69-2.275-5.514-4.42-8.09-4.255-5.235-10.08-10.473-15.526-13.358-.056 3.022 1.09 6.34 2.119 7.965 3.867 6.145 11.912 11.71 15.43 17.378 1.32 1.784 2.573 4.455 3.46 6.644 1.268 3.3 1.476 6.336 1.497 9.513-.067 2.803-.7 6.144-1.05 9.215l-.97-3.477c-.349-3.02.3-5.741-.99-8.787-1.056-2.415-2.433-5.204-4.12-7.041-4.551-4.948-10.236-8.889-15.355-13.333.183 2.316.98 4.915 2.472 7.34 4.736 7.704 11.952 14.483 17.995 21.824a39.875 39.875 0 0 1 2.005 12.708c-.036 2.41-.657 5.754-1 8.637L135 89.993c.028-2.34-.271-4.695-.625-7.019-.531-2.87-1.76-6.105-3.292-8.066-3.157-4.544-8.169-11.358-16.662-14.44.257 2.447 1.346 4.746 2.13 7.1 3.35 6.657 13.049 14.513 18.448 22.425 1.66 3.784 2.05 8.427 2.002 11.956-.004.913.07 4.262-.872 6.815l-1.124-2.282c-.32-2.548-.589-5.062-1.15-7.53-1.732-8.106-11.49-14.285-19.394-20.985.101 2.818.306 6.39 2.016 8.476 6.122 6.725 14.38 12.17 18.52 20.037 2.27 2.872 2.955 8.49 2.956 13.137a17.92 17.92 0 0 1-.698 4.419l-1.563-3.124c.14-2.721-.753-5.156-1.612-7.877-3.368-8.923-12.689-12.812-19.65-18.59.145 2.51.687 5.352 1.972 8.028.801 1.915 13.026 12.226 19.29 18.442 3.454 3.541 3.303 8.806 3.303 11.445.048 3.908-.458 7.558-1.554 11.972-.13.606-2.178 6.324-4.95 8.206 1.63-3.243 2.598-5.802 3.497-10.066.732-3.322.84-5.4.863-7.19 0-3.072-1.173-6.343-2.996-8.54-4.962-5.833-12.435-11.19-19.857-15.226v43.481c.013 1.387-1.895 5.735-4.525 8.224-1.444 1.448-7.505 5.441-13.895 5.469-5.159.025-10.365-1.802-10.561-7.042.052-8.506 11.64-15.56 20.074-15.655 3.015-.172 5.676.934 6.907 1.545z" style="fill:#000;fill-opacity:1;stroke:none"/></svg>