<svg xmlns="http://www.w3.org/2000/svg" width="30" height="64" version="1.0"><path d="M42.426 25.25v2.636h.175v-.724l.029.021.154.148c.256.245.457.476.603.693.145.216.237.421.276.614.03.17.025.363-.018.579a2.342 2.342 0 0 1-.228.637.584.584 0 0 0-.037.083.157.157 0 0 0-.005.05.201.201 0 0 0 .147.183.228.228 0 0 0 .126.007c.04-.01.074-.031.1-.063.03-.038.069-.117.116-.238.047-.121.088-.248.122-.38.046-.184.072-.36.08-.528a1.84 1.84 0 0 0-.038-.47 1.96 1.96 0 0 0-.127-.373l-.041-.084.035-.07c.095-.231.139-.46.132-.684a1.831 1.831 0 0 0-.167-.694l-.036-.078.022-.042a1.696 1.696 0 0 0 .091-.288.699.699 0 0 0 .012-.096 2.963 2.963 0 0 0-.005-.338 1.696 1.696 0 0 0-.028-.185 2.841 2.841 0 0 0-.295-.73 9.543 9.543 0 0 0-.131-.219l-.2-.323-.204-.316a3.877 3.877 0 0 1-.355-.685 1.938 1.938 0 0 1-.13-.595v-.084h-.175v2.636zm.288-1.012c.181.226.33.427.445.604.116.177.206.344.272.5.053.126.092.253.117.38.024.127.03.235.016.322v.028l-.126-.175a6.55 6.55 0 0 1-.118-.16 44.028 44.028 0 0 0-.107-.15 4.814 4.814 0 0 1-.411-.656 1.918 1.918 0 0 1-.18-.546 2.149 2.149 0 0 1-.017-.174c-.004-.064-.003-.097.003-.1.001.005.012.019.032.042l.074.085zm.316 1.841a3.347 3.347 0 0 1 .31.4c.126.19.212.37.259.541a1.06 1.06 0 0 1 0 .578c0 .007-.02-.014-.056-.064a111.772 111.772 0 0 1-.19-.26 11.33 11.33 0 0 1-.365-.505 2.425 2.425 0 0 1-.197-.352 2.073 2.073 0 0 1-.14-.375 1.403 1.403 0 0 1-.05-.35v-.062l.162.168a8.277 8.277 0 0 1 .267.281z" style="font-size:7.02919579px;font-family:Emmentaler" transform="matrix(6.95604 0 0 6.95604 -278.411 -155.816)"/><path d="M16.826 1h.611c.27 0 .489.218.489.489v51.734c0 .27-.218.488-.489.488h-.611a.488.488 0 0 1-.49-.488V1.489c0-.27.219-.489.49-.489z"/><path d="M41.547 29.446c-.254.039-.484.13-.69.275-.206.145-.36.323-.463.534a.826.826 0 0 0-.098.443l.001.107a.716.716 0 0 0 .296.485 1 1 0 0 0 .532.167c.31.003.597-.085.865-.265.267-.18.45-.41.548-.691a.858.858 0 0 0 .042-.302c0-.047 0-.083-.002-.108a.5.5 0 0 0-.012-.082.8.8 0 0 0-.204-.345.931.931 0 0 0-.436-.203 1.075 1.075 0 0 0-.19-.018c-.076-.002-.14 0-.19.003z" style="font-size:7.02919579px;font-family:Emmentaler" transform="matrix(6.95604 0 0 6.95604 -278.411 -155.816)"/></svg>