<svg xmlns="http://www.w3.org/2000/svg" width="30" height="64" version="1.0"><path d="M42.426 25.25v3.515h.175v-.794l.197.196c.12.124.22.231.3.323.08.09.153.182.22.275.092.127.167.253.225.378.059.125.098.243.12.353.03.178.024.382-.021.611a2.34 2.34 0 0 1-.232.654.379.379 0 0 0-.031.061.201.201 0 0 0 .143.234.2.2 0 0 0 .169-.014.21.21 0 0 0 .062-.053.525.525 0 0 0 .057-.095c.085-.192.15-.39.194-.593.044-.203.066-.4.066-.588 0-.14-.019-.281-.057-.424a2.263 2.263 0 0 0-.21-.508.957.957 0 0 1-.014-.03c0-.004.004-.01.01-.02a1.052 1.052 0 0 0 .175-.308.919.919 0 0 0 .054-.305 1.93 1.93 0 0 0-.183-.76l-.02-.034.028-.057c.035-.068.066-.144.093-.229.026-.085.047-.17.061-.256.01-.067.016-.148.016-.243s-.005-.178-.016-.249a2.009 2.009 0 0 0-.154-.492l-.029-.063.029-.07c.038-.105.066-.205.084-.303.018-.097.025-.198.021-.302-.007-.15-.032-.3-.076-.452a3.105 3.105 0 0 0-.345-.77c-.06-.1-.152-.246-.275-.437-.11-.175-.197-.317-.26-.425a4.043 4.043 0 0 1-.162-.299c-.073-.153-.13-.3-.17-.439a1.874 1.874 0 0 1-.069-.418v-.085h-.175v3.515zm.302-1.863c.251.317.443.597.575.842.133.245.218.472.254.684a1.518 1.518 0 0 1 0 .344c-.002.008-.006.01-.01.006a.29.29 0 0 1-.025-.041 3.314 3.314 0 0 1-.703-1.068 2.177 2.177 0 0 1-.164-.428 1.641 1.641 0 0 1-.052-.482c.002-.007.006-.006.012.003.005.004.017.02.038.046l.075.094zm.148 1.715c.143.154.262.297.359.43.096.132.176.26.238.386.084.17.137.327.158.472a1.049 1.049 0 0 1-.045.48.317.317 0 0 1-.008.018l-.042-.056a23.5 23.5 0 0 1-.218-.323l-.253-.352a3.2 3.2 0 0 1-.353-.667 1.714 1.714 0 0 1-.11-.598v-.085l.084.092a3.92 3.92 0 0 1 .19.203zm-.148 1.42c.19.2.345.378.462.531.117.153.212.302.283.446.045.09.081.174.107.25.026.078.044.156.055.235a.96.96 0 0 1 .003.187.626.626 0 0 1-.067.228c-.006.008-.01.008-.014 0a.434.434 0 0 0-.04-.06 46.957 46.957 0 0 1-.093-.13c-.166-.222-.28-.377-.342-.466a2.637 2.637 0 0 1-.157-.25 2.302 2.302 0 0 1-.219-.44 1.75 1.75 0 0 1-.105-.657c.005 0 .019.013.043.037.023.023.051.053.084.09z" style="font-size:7.02919579px;font-family:Emmentaler" transform="translate(-252.093 -136.18) scale(6.33185)"/><path d="M16.651 1h.557c.246 0 .445.199.445.445V54.1a.444.444 0 0 1-.445.445h-.557a.444.444 0 0 1-.445-.445V1.445c0-.246.199-.445.445-.445z"/><path d="M41.547 29.446c-.254.039-.484.13-.69.275-.206.145-.36.323-.463.534a.826.826 0 0 0-.098.443l.001.107a.716.716 0 0 0 .296.485 1 1 0 0 0 .532.167c.31.003.597-.085.865-.265.267-.18.45-.41.548-.691a.858.858 0 0 0 .042-.302c0-.047 0-.083-.002-.108a.5.5 0 0 0-.012-.082.8.8 0 0 0-.204-.345.931.931 0 0 0-.436-.203 1.075 1.075 0 0 0-.19-.018c-.076-.002-.14 0-.19.003z" style="font-size:7.02919579px;font-family:Emmentaler" transform="translate(-252.093 -136.18) scale(6.33185)"/></svg>