<svg xmlns="http://www.w3.org/2000/svg" width="9.219" height="26.886" version="1.2" viewBox="0 0 1.388 4.048"><rect width=".13" height="3.239" x="-.065" y="-.239" ry=".04" style="fill:currentColor" transform="translate(.065 1.048)"/><a transform="translate(-33.228 -7.297)"><path d="M315 65c0 24-21 41-42 41-4 0-8 0-12-1-31-9-77-40-114-64S63-12 43-37c-7-8-11-18-11-28 0-24 21-41 42-41 4 0 8 0 12 1 31 9 78 40 115 64s84 53 104 78c7 8 10 18 10 28zm-51 72c47 0 83-21 83-72 0-19-4-37-10-56-12-38-32-74-65-96-54-36-113-51-188-51-47 0-84 22-84 73C0-46 5-28 11-9c12 38 31 74 64 96 54 36 114 50 189 50z" style="fill:currentColor" transform="matrix(.004 0 0 -.004 33.228 7.845)"/></a></svg>