<svg xmlns="http://www.w3.org/2000/svg" width="10.03" height="17.67" version="1.0"><g style="fill:#000;fill-rule:evenodd;stroke:#000;stroke-width:0;stroke-linecap:butt;stroke-linejoin:round;stroke-miterlimit:10"><path stroke="none" d="M531.098 74.847c-.52.098-.918.457-1.098.953-.039.16-.039.199-.039.418 0 .301.019.461.16.699.199.399.617.719 1.094.836.5.141 1.336.02 2.293-.297l.238-.082-1.176 3.25-1.156 3.246s.039.02.102.063a.945.945 0 0 0 .457.137c.238 0 .539-.137.578-.258 0-.039.558-1.934 1.234-4.184l1.195-4.125-.039-.058c-.097-.121-.296-.16-.418-.063a1.41 1.41 0 0 0-.14.18c-.18.301-.637.836-.875 1.035-.219.18-.34.199-.539.121-.18-.098-.239-.199-.36-.738-.117-.535-.257-.778-.558-.977a1.228 1.228 0 0 0-.953-.156z" style="fill:#000;stroke:#000" transform="matrix(1.8 0 0 1.8 -953.43 -134.156)"/></g></svg>