<svg xmlns="http://www.w3.org/2000/svg" width="19.06" height="54.6" version="1.0"><path d="M493.186 152.469c-.464.893-.936 1.539-1.258 1.793-.176.14-.36.14-.64.036-.323-.184-.436-.36-.647-1.33-.218-.97-.471-1.4-1.006-1.757a2.252 2.252 0 0 0-1.723-.288c-.934.181-1.652.83-1.969 1.722-.077.288-.077.358-.077.753 0 .392 0 .54.077.752.247.794.753 1.399 1.541 1.757.569.288.787.324 1.575.324.542 0 .752 0 1.188-.07a15.525 15.525 0 0 0 1.97-.535l.393-.148-.036.148c-.034.07-.288 1.321-.612 2.756-.568 2.51-.604 2.658-.786 2.98-.394.823-.963 1.612-1.365 1.865-.21.14-.394.14-.64.035-.323-.177-.436-.359-.647-1.329-.183-.718-.324-1.11-.612-1.4-.752-.823-2.046-.927-3.05-.281-.465.317-.823.823-1.034 1.357-.077.288-.077.358-.077.753 0 .541.034.83.288 1.258.358.718 1.11 1.294 1.976 1.505.393.113 1.399.113 2.081 0a17.798 17.798 0 0 0 1.933-.5c.324-.105.542-.183.576-.183.034 0-1.073 5.134-1.292 5.598-.22.465-.789 1.365-1.217 1.827-.472.43-.682.508-1.076.36-.324-.176-.436-.36-.647-1.33-.183-.716-.324-1.11-.612-1.391-.752-.83-2.046-.936-3.05-.288-.465.322-.823.822-1.043 1.364-.07.28-.07.358-.07.75 0 .535.036.825.29 1.254.358.716 1.11 1.294 1.974 1.504.93.252 2.475.042 4.234-.534.245-.106.499-.184.499-.184 0 .043-.288 1.224-.612 2.693-.535 2.51-.57 2.693-.753 3.01-.288.612-.927 1.477-1.364 1.87-.358.324-.603.394-.963.246-.322-.176-.436-.358-.646-1.32-.184-.72-.324-1.113-.612-1.401-.753-.83-2.047-.934-3.051-.288-.465.324-.823.822-1.034 1.364-.077.288-.077.358-.077.753 0 .534.034.822.288 1.25.358.719 1.11 1.295 1.975 1.513.928.246 2.721 0 4.48-.612.218-.07.358-.105.358-.105 0 .034-2.511 11.292-2.615 11.65 0 .077.034.113.174.183.22.14.578.254.83.254.247 0 .605-.113.823-.254.147-.07.183-.106.22-.288 3.082-17.056 6.995-33.924 10.525-50.885-.105-.177-.247-.247-.465-.247-.322 0-.392.07-.716.682-.464.893-.936 1.54-1.258 1.793-.177.14-.36.14-.641.036-.322-.183-.436-.36-.646-1.33-.218-.97-.472-1.399-1.007-1.757a2.252 2.252 0 0 0-1.722-.288c-.934.182-1.653.83-1.97 1.723-.077.288-.077.358-.077.752 0 .393 0 .54.078.753.246.793.752 1.398 1.54 1.756.57.288.787.324 1.576.324.541 0 .752 0 1.188-.07a15.525 15.525 0 0 0 1.969-.534l.394-.148-.036.148c-.034.07-.288 1.32-.612 2.755" style="fill:#000;fill-rule:evenodd;stroke:#000;stroke-width:0;stroke-linecap:butt;stroke-linejoin:round;stroke-miterlimit:10" transform="translate(-478.483 -140.832)"/></svg>