<svg xmlns="http://www.w3.org/2000/svg" width="12.66" height="26.65" version="1.0"><g style="fill:#000;fill-rule:evenodd;stroke:#000;stroke-width:0;stroke-linecap:butt;stroke-linejoin:round;stroke-miterlimit:10"><path stroke="none" d="M544.191 74.847a1.431 1.431 0 0 0-1.093.953c-.043.16-.043.199-.043.418 0 .301.019.461.16.699.199.399.617.719 1.098.836.496.141 1.292.039 2.25-.277.14-.059.257-.102.257-.082 0 .023-.894 2.93-.933 3.031-.102.258-.442.735-.739 1.035-.277.278-.418.34-.636.239-.18-.098-.239-.2-.36-.739-.101-.398-.179-.617-.339-.773-.418-.461-1.137-.52-1.692-.16a1.636 1.636 0 0 0-.578.758c-.043.156-.043.199-.043.417 0 .297.023.458.16.696.199.398.617.719 1.098.836.219.062.777.062 1.156 0a9.258 9.258 0 0 0 1.074-.278c.16-.058.301-.097.301-.078 0 0-1.953 6.356-1.992 6.453 0 .02.156.141.316.18.16.063.321.063.481 0 .156-.039.316-.137.316-.199.02-.02.817-3.027 1.793-6.676l1.774-6.633-.039-.058c-.079-.121-.239-.141-.379-.082-.079.039-.079.039-.317.398-.199.32-.48.656-.64.816-.219.18-.336.219-.536.141-.179-.098-.242-.199-.359-.738-.121-.535-.262-.778-.559-.977a1.234 1.234 0 0 0-.957-.156z" style="fill:#000;stroke:#000" transform="matrix(1.8 0 0 1.8 -974.2 -134.155)"/></g></svg>