<svg xmlns="http://www.w3.org/2000/svg" width="14.294" height="43.517" version="1.2" viewBox="0 0 2.152 6.552"><path d="M0-212v-20c0-111 84-194 144-285 4 15 6 30 6 46 0 94-85 190-150 259zM0 0c0-176 193-295 193-471 0-33-7-66-19-97 17-35 29-72 29-113 0-42-11-82-29-120 17-35 29-71 29-112 0-42-11-82-29-120 17-35 29-72 29-113 0-36-14-70-35-99 24-41 41-84 41-133 0-61-16-120-42-175-5-8-12-11-19-11-13 0-26 11-23 27 26 49 42 103 42 159 0 92-95 177-167 236v-108h-16V0H0zm0-445v-20c0-112 87-196 147-289 9 23 13 48 13 73 0 91-91 176-160 236zm0-232v-20c0-112 87-196 147-289 9 23 13 48 13 73 0 91-91 176-160 236zm0-233v-20c0-108 82-189 143-277 11 18 17 39 17 61 0 91-91 176-160 236z" style="fill:currentColor" transform="matrix(.004 0 0 -.004 1.316 .04)"/><rect width=".13" height="5.812" x="-.065" y="-4.5" ry=".04" style="fill:currentColor" transform="translate(1.251 4.5)"/><a transform="translate(-111.637 -3.845)"><path d="M220 138c56 0 109-29 109-91 0-72-56-121-103-149-36-21-76-36-117-36C53-138 0-109 0-47 0 25 56 74 103 102c36 21 76 36 117 36z" style="fill:currentColor" transform="matrix(.004 0 0 -.004 111.637 9.845)"/></a></svg>