<svg xmlns="http://www.w3.org/2000/svg" width="26.22" height="74.74"><g style="font-size:40px;font-style:normal;font-weight:400;fill:#000;fill-opacity:1;stroke:none;font-family:Bitstream Vera Sans"><path d="M138.761 462.53c-6.844 8.157-10.265 14.25-10.265 18.282 0 3.89 3.257 9.727 9.773 17.508l-2.04 2.883c-3.28-1.922-6.093-2.883-8.437-2.883-3.046 0-4.57 1.828-4.57 5.484 0 3.75 1.664 7.477 4.992 11.18l-1.828 2.742c-9.234-6.844-13.851-12.938-13.851-18.281 0-2.719.937-4.875 2.812-6.469 1.734-1.5 3.984-2.25 6.75-2.25 1.781 0 3.75.469 5.906 1.406l-14.132-18.773c6.703-5.906 10.054-11.25 10.054-16.031 0-3.797-2.273-8.579-6.82-14.344h5.625l16.031 19.547" style="font-size:144px;font-family:musica;-inkscape-font-specification:musica" transform="matrix(.99975 0 0 .99997 -112.506 -442.97)"/></g></svg>